# xmcd CD database file
#
# Track frame offsets:
#	150
#	13890
#	26800
#	53847
#	67946
#	81492
#	94112
#	108134
#	122257
#	137507
#	151996
#	165921
#	179907
#	194444
#	208164
#	221119
#	235148
#	248762
#	263658
#	277518
#	292820
#	306759
#	320130
#
# Disc length: 4374 seconds
#
# Revision: 0
# Processed by: cddbd v1.5.1PL2 Copyright (c) Steve Scherf et al.
# Submitted via: CDex 1.51
#
DISCID=42111417
DTITLE=Mildred Bailey - Sunday, Monday Or Allway, CD 4
DYEAR=1900
DGENRE=Jazz
TTITLE0=Can't Help Lovin' That Man
TTITLE1=Summertime
TTITLE2=All That Glitters Is Not Gold
TTITLE3=In Love In Vain
TTITLE4=It's A Woman Prerogativ
TTITLE5=Penthouse Serenade
TTITLE6=I'll Close My Eyes
TTITLE7=Ma And The Blues
TTITLE8=At Sundown
TTITLE9=Lover, Come Back TO Me
TTITLE10=All of Me
TTITLE11=Almost Like Being in Love
TTITLE12=Heather On The Hills
TTITLE13=You Started Something
TTITLE14=Born  To Be Blue
TTITLE15=Can't We Be Friends
TTITLE16=Don't Worry Bout Stranger
TTITLE17=Gone On That Guy
TTITLE18=That ain't right
TTITLE19=I don't want to miss Mississippi
TTITLE20=I'll Close My Eyes
TTITLE21=That Ain't Right
TTITLE22=Lover, Come Back to me
EXTD=
EXTT0=
EXTT1=
EXTT2=
EXTT3=
EXTT4=
EXTT5=
EXTT6=
EXTT7=
EXTT8=
EXTT9=
EXTT10=
EXTT11=
EXTT12=
EXTT13=
EXTT14=
EXTT15=
EXTT16=
EXTT17=
EXTT18=
EXTT19=
EXTT20=
EXTT21=
EXTT22=
PLAYORDER=
